# xmcd
#
# Track frame offsets:
#	150
#	11980
#	23625
#	33885
#	44455
#	55860
#	67773
#	77715
#	85220
#	99055
#	112475
#	123228
#	134030
#	143288
#	152850
#	162508
#
# Disc length: 2274 seconds
#
# Revision: 1
# Processed by: cddbd v1.5.1PL0 Copyright (c) Steve Scherf et al.
# Submitted via: CDex 1.50Beta5
#
DISCID=cd08e010
DTITLE=さまざまなアーティスト - COME and DANCE
DYEAR=1900
DGENRE=Other
TTITLE0=愛の命
TTITLE1=イット・オール・シームズ・トゥ・フォール・イントゥ・ライン
TTITLE2=ボンベジャ生まれ
TTITLE3=ママ恋人が欲しいの
TTITLE4=メモリーズ・オブ・ユー
TTITLE5=ルビー
TTITLE6=ジャンピン・アット・ザ・ウッドサイド
TTITLE7=シトロンの花咲くところ
TTITLE8=あなたのすべてを
TTITLE9=恋はフェニックス
TTITLE10=ユー・ガット・ザ・パワー
TTITLE11=アモール
TTITLE12=
TTITLE13=マリア
TTITLE14=ヴェン・ア・バイリア
TTITLE15=アリガーターよさようなら
EXTD=
EXTT0=
EXTT1=
EXTT2=
EXTT3=
EXTT4=
EXTT5=
EXTT6=
EXTT7=
EXTT8=
EXTT9=
EXTT10=
EXTT11=
EXTT12=
EXTT13=
EXTT14=
EXTT15=
PLAYORDER=
